<svg width="25" height="25" viewBox="0 0 25 25" fill="none" xmlns="http://www.w3.org/2000/svg">
<path id="Vector" fill-rule="evenodd" clip-rule="evenodd" d="M12.4628 0C5.57117 0 0 5.54435 0 12.4035C0 17.8863 3.56964 22.5275 8.52168 24.1701C9.14082 24.2936 9.3676 23.9032 9.3676 23.5748C9.3676 23.2873 9.34719 22.3017 9.34719 21.2747C5.88036 22.0141 5.15842 19.7961 5.15842 19.7961C4.60128 18.3586 3.77577 17.9892 3.77577 17.9892C2.64107 17.2293 3.85842 17.2293 3.85842 17.2293C5.11709 17.3115 5.77755 18.5025 5.77755 18.5025C6.89158 20.3916 8.68673 19.8579 9.40893 19.5292C9.51199 18.7283 9.84235 18.1739 10.1931 17.8659C7.42806 17.5784 4.51888 16.5106 4.51888 11.7462C4.51888 10.3909 5.01378 9.28201 5.79796 8.41961C5.67423 8.11164 5.24082 6.83821 5.92194 5.13382C5.92194 5.13382 6.97423 4.80519 9.34694 6.40701C10.3628 6.1355 11.4104 5.99738 12.4628 5.99622C13.5151 5.99622 14.5878 6.14012 15.5783 6.40701C17.9513 4.80519 19.0036 5.13382 19.0036 5.13382C19.6847 6.83821 19.251 8.11164 19.1273 8.41961C19.9321 9.28201 20.4066 10.3909 20.4066 11.7462C20.4066 16.5106 17.4974 17.5577 14.7117 17.8659C15.1658 18.256 15.5577 18.9952 15.5577 20.1658C15.5577 21.8291 15.5372 23.1641 15.5372 23.5746C15.5372 23.9032 15.7643 24.2936 16.3832 24.1704C21.3352 22.5272 24.9048 17.8863 24.9048 12.4035C24.9253 5.54435 19.3337 0 12.4628 0Z" fill="#151515"/>
</svg>
