<svg xmlns="http://www.w3.org/2000/svg" width="22" height="21" fill="none">
  <path fill="#fff" d="M10.087 19a1 1 0 0 1 0 2v-2Zm0 2H3.181v-2h6.906v2Zm-6.906 0c-.945 0-1.813-.303-2.414-1.048C.199 19.248 0 18.306 0 17.296h2c0 .793.164 1.203.324 1.4.126.157.348.304.857.304v2ZM0 17.296V10.087h2V17.296H0Z"/>
  <path fill="#fff" d="M10.087 2a1 1 0 0 0 0-2v2Zm0-2H3.181v2h6.906V0ZM3.181 0C2.236 0 1.368.303.767 1.048.199 1.752 0 2.694 0 3.704h2c0-.793.164-1.203.324-1.4C2.45 2.147 2.672 2 3.18 2V0ZM0 3.704V10.913h2V3.704H0Z"/>
  <path stroke="#fff" stroke-linecap="round" stroke-width="2" d="m15.043 16.696 2.685-2.892 2.685-2.891M7.609 10.913h11.565M15.043 5.13l2.685 2.892 2.685 2.891"/>
</svg>