<svg xmlns="http://www.w3.org/2000/svg" width="30" height="30" fill="none">
  <g clip-path="url(#a)">
    <path fill="#000" d="M29.981 14.896a15.125 15.125 0 0 0-2.45-8.073 15.005 15.005 0 0 0-6.384-5.481A14.906 14.906 0 0 0 12.834.174 14.943 14.943 0 0 0 5.2 3.686a15.075 15.075 0 0 0-4.556 7.09 15.148 15.148 0 0 0-.05 8.44 15.077 15.077 0 0 0 4.473 7.144 14.943 14.943 0 0 0 7.591 3.602V19.284H8.914v-4.388h3.745v-3.333a5.357 5.357 0 0 1 1.435-4.277 5.273 5.273 0 0 1 4.183-1.636 22.2 22.2 0 0 1 3.352.301v3.767h-1.872a2.16 2.16 0 0 0-1.784.598 2.185 2.185 0 0 0-.65 1.774v2.844h4.156l-.674 4.388h-3.464v10.546a14.96 14.96 0 0 0 9.08-5.13 15.118 15.118 0 0 0 3.56-9.842Z" />
  </g>
  <defs>
    <clipPath id="a">
      <path fill="#fff" d="M0 0h30v30H0z" />
    </clipPath>
  </defs>
</svg>