<svg xmlns="http://www.w3.org/2000/svg" width="30" height="30" fill="none">
  <g fill="#0F0F0F" clip-path="url(#a)">
    <path fill-rule="evenodd" d="M15 23.174a8.174 8.174 0 1 0 0-16.348 8.174 8.174 0 0 0 0 16.348Zm0-2.724a5.45 5.45 0 1 0 0-10.9 5.45 5.45 0 0 0 0 10.9Z" clip-rule="evenodd" />
    <path d="M23.174 5.463a1.362 1.362 0 1 0 0 2.725 1.362 1.362 0 0 0 0-2.725Z" />
    <path fill-rule="evenodd" d="M.905 4.477C.014 6.226.014 8.515.014 13.093v3.814c0 4.578 0 6.867.89 8.616a8.174 8.174 0 0 0 3.573 3.572c1.748.891 4.038.891 8.616.891h3.814c4.578 0 6.867 0 8.616-.89a8.174 8.174 0 0 0 3.572-3.573c.891-1.748.891-4.038.891-8.616v-3.814c0-4.578 0-6.867-.89-8.616A8.174 8.174 0 0 0 25.522.905C23.775.014 21.485.014 16.907.014h-3.814c-4.578 0-6.867 0-8.616.89A8.174 8.174 0 0 0 .905 4.478Zm16.002-1.739h-3.814c-2.334 0-3.921.003-5.147.103-1.195.097-1.806.274-2.232.491a5.45 5.45 0 0 0-2.382 2.382c-.217.426-.394 1.037-.491 2.232-.1 1.226-.103 2.813-.103 5.147v3.814c0 2.334.003 3.92.103 5.147.097 1.195.274 1.806.491 2.232a5.45 5.45 0 0 0 2.382 2.382c.426.217 1.037.394 2.232.491 1.226.1 2.813.103 5.147.103h3.814c2.334 0 3.92-.003 5.147-.103 1.195-.097 1.806-.274 2.232-.491a5.45 5.45 0 0 0 2.382-2.382c.217-.426.394-1.037.491-2.232.1-1.226.103-2.813.103-5.147v-3.814c0-2.334-.003-3.921-.103-5.147-.097-1.195-.274-1.806-.491-2.232a5.45 5.45 0 0 0-2.382-2.382c-.426-.217-1.037-.394-2.232-.491-1.226-.1-2.813-.103-5.147-.103Z" clip-rule="evenodd" />
  </g>
  <defs>
    <clipPath id="a">
      <path fill="#fff" d="M0 0h30v30H0z" />
    </clipPath>
  </defs>
</svg>