<svg xmlns="http://www.w3.org/2000/svg" width="30" height="30" fill="none">
  <g clip-path="url(#a)">
    <path fill="#000" fill-rule="evenodd" d="M24.542 0H6.306C3.069 0 0 2.538 0 5.77v18.244C0 27.246 3.07 30 6.306 30h18.24C27.778 30 30 27.246 30 24.014V5.77C30 2.538 27.778 0 24.542 0Zm-1.105 17.317c1.641 1.523 1.984 2.267 2.038 2.357.68 1.131-.753 1.217-.753 1.217l-2.74.04s-.59.118-1.366-.419c-1.028-.698-1.992-2.528-2.75-2.294-.761.244-.739 1.893-.739 1.893s.005.289-.166.478c-.19.198-.56.18-.56.18h-1.23s-2.709.226-5.093-2.258c-2.6-2.709-4.895-8.05-4.895-8.05s-.13-.338.01-.51c.162-.188.603-.197.603-.197L8.73 9.74s.275.05.474.194a.926.926 0 0 1 .257.342s.473 1.204 1.1 2.286c1.225 2.118 1.798 2.582 2.212 2.357.609-.334.424-2.993.424-2.993s.014-.969-.306-1.402c-.244-.329-.704-.428-.91-.455-.168-.022.107-.406.459-.577.527-.257 1.46-.275 2.56-.261.856.009 1.104.063 1.438.144 1.014.243.671 1.185.671 3.448 0 .726-.13 1.744.392 2.082.226.145.776.023 2.146-2.312.654-1.109 1.14-2.407 1.14-2.407s.108-.234.275-.333c.171-.1.401-.068.401-.068l3.088-.022s.924-.109 1.077.31c.158.438-.347 1.466-1.61 3.147-2.072 2.758-2.302 2.501-.58 4.097Z" clip-rule="evenodd" />
  </g>
  <defs>
    <clipPath id="a">
      <path fill="#fff" d="M0 0h30v30H0z" />
    </clipPath>
  </defs>
</svg>